<svg width="108" height="32" viewBox="0 0 108 32" fill="none" xmlns="http://www.w3.org/2000/svg">
<path fill-rule="evenodd" clip-rule="evenodd" d="M53.4277 21.2554C51.4285 23.0046 48.7568 23.5236 46.5855 22.5468C45.2845 21.9337 44.3302 20.8063 44.0388 19.6247C45.8674 21.4309 49.1529 22.3512 52.1678 19.1917C52.1678 19.1917 54.9953 16.5842 53.3909 11.6796C52.5944 9.24797 49.6109 7.2292 47.1232 6.97984C43.4212 6.3833 39.9222 7.63791 37.5087 11.0178C34.6521 15.4113 34.291 20.2874 32.2221 25.1708C31.8734 25.9717 31.1452 26.3235 30.4059 26.2904C29.6629 26.323 28.9324 25.9717 28.5837 25.1708C26.513 20.2869 26.1602 15.4113 23.3054 11.0178C20.8883 7.63791 17.3892 6.3833 13.6849 6.97984C11.2037 7.2292 8.21374 9.24797 7.41542 11.6796C5.81646 16.5842 8.64265 19.1917 8.64265 19.1917C11.6547 22.3512 14.9449 21.4313 16.7689 19.6247C16.4774 20.8063 15.5273 21.9337 14.2222 22.5468C12.0527 23.5236 9.38287 23.0046 7.37806 21.2554C4.41905 18.3334 3.97353 14.5778 5.14358 11.1202C6.56544 6.92289 10.8301 4.81824 14.2226 4.55235C18.2364 4.20104 23.7776 6.65332 25.996 10.8341C26.5093 11.8027 27.5908 14.2995 27.5908 14.2995H33.2219C33.2219 14.2995 34.2993 11.8022 34.8186 10.8341C37.0328 6.65332 42.5717 4.20104 46.5859 4.55235C49.978 4.81824 54.2491 6.92289 55.6687 11.1202C56.8429 14.5778 56.3914 18.3338 53.4282 21.2554H53.4277ZM60.0929 9.98779C56.7931 0.551544 47.3488 0.0243487 46.3802 0.00368337C42.1589 -0.0821925 37.4861 1.38091 33.9294 4.83845C32.4993 6.11786 31.4796 7.60117 30.4059 9.19883C29.3304 7.60117 28.3042 6.11786 26.8819 4.83845C23.3243 1.38091 18.6487 -0.0821925 14.432 0.00368337C13.4589 0.0243487 4.01504 0.551544 0.716588 9.98779C-0.460838 13.3677 -0.194269 17.7529 1.56426 20.9652C3.30434 24.6675 7.46016 27.7003 11.8438 27.394C15.0288 27.3081 18.5053 25.2934 19.7902 22.0563C20.8629 19.1545 20.5308 16.0404 18.0496 13.5514C18.1133 14.1888 18.1419 15.0632 17.5096 15.8765C16.5125 17.2578 14.9255 17.6014 13.2924 17.0089C11.8498 16.3545 11.3084 15.3208 11.4518 13.9395C11.5565 12.7661 12.4964 11.8711 13.4796 11.4339C15.3987 10.5999 17.1674 11.0247 18.8973 12.6642C21.7318 15.8191 22.062 20.5969 23.4082 24.2216C24.3601 27.2052 25.8687 29.8003 29.1764 30.5443C29.579 30.6343 29.9871 30.6788 30.3994 30.6751C30.8224 30.6788 31.231 30.6343 31.629 30.5443C34.9408 29.8003 36.4452 27.2057 37.4059 24.2216C38.7461 20.5969 39.0763 15.8191 41.9122 12.6642C43.6445 11.0252 45.4131 10.5999 47.3257 11.4339C48.3108 11.8711 49.253 12.7661 49.3536 13.9395C49.5071 15.3204 48.9592 16.3545 47.5166 17.0089C45.8831 17.6014 44.2989 17.2578 43.2972 15.8765C42.669 15.0632 42.6958 14.1884 42.7594 13.5514C40.2764 16.0404 39.9457 19.1545 41.0193 22.0563C42.3038 25.2934 45.7779 27.3081 48.9611 27.394C53.3443 27.7003 57.5065 24.668 59.2466 20.9652C60.9945 17.7529 61.2657 13.3673 60.092 9.98779H60.0929Z" fill="#F9423A"/>
<path d="M96.9591 32.0001V28.3588H106.334V32.0001H96.9591ZM102.984 12.1499C102.984 11.4018 102.705 10.7322 101.827 10.7322C100.948 10.7322 100.678 11.4022 100.678 12.1499V22.3792C100.678 23.1273 100.957 23.7973 101.827 23.7973C102.696 23.7973 102.984 23.1268 102.984 22.3792V19.0034H108V21.9829C108 25.8165 105.34 27.2714 101.621 27.2714C97.7012 27.2714 95.3085 25.5341 95.3085 21.6316V12.9104C95.3085 9.57497 97.6398 7.23336 101.621 7.23336C105.012 7.23336 108 8.58211 108 12.9512V14.4671H102.984V12.1499ZM75.1977 11.811L80.8284 26.4663H75.1687L71.9223 17.5977L71.1097 18.9993V26.4659H65.4495V1.16418H71.1097V9.03583L74.7586 1.16418H80.3608L75.1977 11.811ZM93.454 21.8809C93.454 25.6411 90.5273 27.2714 87.2358 27.2714C83.9442 27.2714 81.0217 25.6411 81.0217 21.8809V12.6729C81.0217 8.90449 83.9479 7.27377 87.2358 7.27377C90.5236 7.27377 93.454 8.90449 93.454 12.6729V21.8809ZM88.3108 12.3868C88.3108 11.6433 88.0521 10.9646 87.2358 10.9646C86.4195 10.9646 86.1644 11.6433 86.1644 12.3868V22.167C86.1644 22.9069 86.4232 23.5815 87.2358 23.5815C88.0484 23.5815 88.3108 22.9073 88.3108 22.167V12.3868Z" fill="#231F20"/>
</svg>
