<svg width="112" height="33" viewBox="0 0 112 33" fill="none" xmlns="http://www.w3.org/2000/svg">
<g clip-path="url(#clip0_135_381)">
<path d="M40.0703 13.0612C41.701 13.0612 42.7121 13.6775 42.7899 13.7729L43.7595 10.8022C43.1217 10.4773 42.0303 10.2374 40.6484 10.2374C37.2419 10.2374 34.5767 12.0426 34.1853 14.758C33.9493 16.3981 35.0615 17.4915 36.4952 18.2445C37.6281 18.8377 37.9937 19.3044 37.9004 19.9491C37.807 20.5938 37.1641 21.1199 36.0545 21.1353C34.2864 21.156 32.4716 20.0832 32.4716 20.0832L31.5098 23.0333C32.7801 23.8688 35.1082 24.1422 36.98 23.9694C39.2614 23.7605 42.2169 22.5279 42.0484 18.7087C41.981 17.2233 40.6147 16.2847 39.5907 15.7251C38.5822 15.2093 38.1052 14.758 38.1829 14.2191C38.2737 13.5202 39.0437 13.0586 40.0703 13.0612ZM67.4423 10.2246C65.6819 10.2246 63.9242 10.9776 62.4335 12.7002H62.379L62.9624 10.5211H59.5013C59.1721 11.679 58.7469 13.1308 58.1843 14.7993L55.234 23.678H59.1228L61.0698 17.8397C62.0265 14.9334 63.7427 13.3449 65.0131 13.3449C65.9878 13.3449 66.2212 13.9896 66.089 14.9076C66.0116 15.4083 65.8954 15.9023 65.7416 16.3852L63.315 23.678H67.2038L69.76 16.0345C69.988 15.3035 70.1673 14.5584 70.2966 13.8039C70.6311 11.5552 69.6044 10.2374 67.4423 10.2374V10.2246ZM83.8634 4.57446L81.8723 10.5211C81.3056 10.3173 80.7067 10.2169 80.1042 10.2246C75.1006 10.2246 71.1729 14.4228 70.5118 18.9924C70.0529 22.1952 71.6629 23.972 73.908 23.972C75.4636 23.972 77.1694 23.2989 78.5746 21.5505H78.629L78.1365 23.6754H81.7167C82.0465 21.9422 82.4987 20.2343 83.07 18.5643L87.7573 4.58735L83.8634 4.57446ZM79.6764 17.1666C78.8027 19.668 77.2524 20.8517 76.1428 20.8517C75.0332 20.8517 74.4317 19.9646 74.6625 18.3761C75.0228 15.8489 77.0606 13.1566 79.3861 13.1566C79.9162 13.1366 80.4371 13.2987 80.8612 13.6156L79.6764 17.1666ZM107.113 10.2246C102.408 10.2246 98.6797 13.9638 98.0212 18.5385C97.5545 21.7955 99.486 23.9746 102.841 23.9746C107.437 23.9746 111.243 20.4494 111.933 15.6322C112.363 12.6589 110.655 10.2374 107.113 10.2374V10.2246ZM107.891 15.6606C107.564 17.9196 105.931 21.0141 103.795 21.0141C102.444 21.0141 101.832 19.9826 102.053 18.4586C102.312 16.4136 103.922 13.1566 106.167 13.1566C107.746 13.1695 108.075 14.4615 107.901 15.6735L107.891 15.6606ZM55.1251 18.3064C55.746 17.1228 56.1631 15.8441 56.3592 14.5234C56.5744 12.8059 55.6125 10.2349 52.2785 10.2349C47.4927 10.2349 43.9824 14.4073 43.3965 18.4147C42.9065 21.8316 44.5476 23.9565 48.3353 23.9565C49.9307 23.9686 51.5139 23.6808 53.0019 23.1081L54.0389 19.9207C52.6979 20.6119 51.2093 20.9719 49.699 20.9703C46.8109 20.9703 46.9742 18.9331 47.1557 18.3064H55.1251ZM51.3867 13.0586C53.0278 13.0586 53.1237 14.5259 52.7089 15.5884H47.962C48.4494 14.3867 49.6705 13.0612 51.3867 13.0612V13.0586ZM93.7046 10.222C88.9162 10.222 85.3955 14.3944 84.82 18.4018C84.33 21.8187 85.9737 23.9436 89.7588 23.9436C91.3541 23.9557 92.9374 23.6679 94.4253 23.0952L95.4623 19.9078C94.1203 20.5989 92.631 20.9588 91.1199 20.9574C88.2318 20.9574 88.3977 18.9202 88.5792 18.2935H96.5357C97.1565 17.1099 97.5736 15.8312 97.7697 14.5105C97.9978 12.8085 97.0386 10.2374 93.7046 10.2374V10.222ZM94.135 15.5755H89.3855C89.8755 14.3712 91.0965 13.0457 92.8128 13.0457C94.4539 13.0612 94.5472 14.5285 94.135 15.591V15.5755Z" fill="#0067FF"/>
<path d="M20.2218 16.6947C21.0151 17.6153 22.7598 20.4107 22.0962 23.0256C21.4065 25.7411 18.8659 27.9459 13.7586 28.8794C10.1446 29.5396 5.63357 29.2534 1.0396 27.982L0 31.0714C2.83364 31.8579 8.81461 33.2144 15.3348 32.0462C21.5854 30.9296 23.5713 27.7164 24.0665 26.2929C25.7075 21.5738 21.1784 17.3729 20.2218 16.6947ZM3.48696 20.599L2.46291 23.6806C6.03542 24.6657 9.62348 24.8952 12.6101 24.3227C13.9305 24.1015 15.1954 23.6286 16.3355 22.9302C17.25 22.3821 17.9558 21.5477 18.3422 20.5577C18.967 18.8274 18.394 16.1403 15.283 13.8091C15.5837 14.1985 18.0233 17.5483 14.4274 19.944C13.5067 20.5265 12.4749 20.9137 11.3968 21.0812C9.04535 21.5377 6.25319 21.3623 3.47918 20.599H3.48696ZM1.23404 27.376C3.36801 27.9702 5.55684 28.3487 7.76723 28.5055C9.84217 28.6631 11.9289 28.5556 13.9763 28.1857C15.6384 27.9051 17.2307 27.3089 18.6662 26.4296C19.9314 25.607 20.7869 24.5987 21.2043 23.4253C22.428 19.9904 19.4518 16.4626 17.7433 15.2403C18.4251 16.0526 21.3391 20.3566 16.7581 23.4434C15.7056 24.15 14.3497 24.6399 12.763 24.9442C9.652 25.5373 5.94986 25.3053 2.26328 24.2866L1.23404 27.376ZM11.3449 0.956469C5.09692 2.07308 3.11104 5.28623 2.61586 6.70971C0.974791 11.4289 5.50395 15.6297 6.46837 16.3079C5.67505 15.3873 3.93028 12.5919 4.59397 9.97702C5.28358 7.26157 7.82167 5.05672 12.9316 4.1232C16.5455 3.46304 21.0565 3.74928 25.6505 5.02062L26.6746 1.93898C23.8357 1.14472 17.8625 -0.211716 11.3346 0.956469H11.3449ZM12.2679 13.0509C13.1883 12.4696 14.2189 12.0825 15.2959 11.9137C17.6292 11.465 20.4266 11.6403 23.2006 12.4036L24.2376 9.32201C20.6651 8.33692 17.077 8.10741 14.0904 8.6799C12.7693 8.9016 11.5036 9.3744 10.3624 10.0724C9.44847 10.6205 8.74353 11.455 8.35833 12.4449C7.71279 14.1804 8.2961 16.8623 11.4071 19.1936C11.1038 18.7964 8.66424 15.4466 12.2575 13.0509H12.2679ZM12.7034 4.81689C11.0397 5.09768 9.4458 5.69387 8.00833 6.57304C6.74577 7.39567 5.88764 8.40397 5.47024 9.57731C4.24916 13.0122 7.22539 16.54 8.93387 17.7623C8.25203 16.95 5.33802 12.646 9.91903 9.55926C10.969 8.85267 12.3275 8.36271 13.9141 8.05841C17.0252 7.4653 20.7273 7.69738 24.4139 8.716L25.4353 5.63436C23.3093 5.03884 21.1283 4.65785 18.9255 4.49713C16.8463 4.33831 14.7551 4.44577 12.7034 4.81689Z" fill="#00BB59"/>
</g>
<defs>
<clipPath id="clip0_135_381">
<rect width="112" height="32" fill="white" transform="translate(0 0.5)"/>
</clipPath>
</defs>
</svg>
