<svg width="114" height="80" viewBox="0 0 114 80" fill="none" xmlns="http://www.w3.org/2000/svg">
<g clip-path="url(#clip0_135_342)">
<path d="M73.5445 23.0045C74.6583 24.3123 77.1078 28.2835 76.1761 31.9981C75.2079 35.8557 71.6409 38.9879 64.4706 40.3141C59.3968 41.2519 53.0637 40.8453 46.6141 39.0392L45.1545 43.428C49.1328 44.5453 57.5297 46.4723 66.6836 44.8127C75.459 43.2265 78.2471 38.6619 78.9422 36.6397C81.2462 29.9357 74.8876 23.968 73.5445 23.0045ZM50.05 28.5509L48.6123 32.9287C53.6279 34.3281 58.6653 34.6541 62.8582 33.8408C64.712 33.5265 66.4879 32.8548 68.0885 31.8626C69.3724 31.084 70.3632 29.8986 70.9057 28.4923C71.7829 26.0341 70.9785 22.2169 66.6108 18.9051C67.033 19.4583 70.458 24.2171 65.4097 27.6204C64.117 28.4479 62.6685 28.9979 61.1548 29.2359C57.8536 29.8844 53.9336 29.6353 50.0391 28.5509H50.05ZM46.8871 38.1783C49.883 39.0225 52.956 39.5601 56.0592 39.7829C58.9723 40.0067 61.9018 39.854 64.7764 39.3286C67.1099 38.93 69.3453 38.083 71.3607 36.8338C73.1369 35.6652 74.338 34.2328 74.924 32.566C76.6419 27.6863 72.4635 22.6748 70.0649 20.9383C71.0222 22.0923 75.1132 28.2065 68.6818 32.5916C67.2041 33.5954 65.3005 34.2914 63.073 34.7237C58.7053 35.5663 53.5077 35.2366 48.332 33.7896L46.8871 38.1783ZM61.082 0.64673C52.3103 2.23298 49.5222 6.79759 48.827 8.81979C46.5231 15.5238 52.8817 21.4915 54.2357 22.455C53.1219 21.1471 50.6724 17.176 51.6042 13.4613C52.5723 9.60376 56.1356 6.47154 63.3096 5.14539C68.3834 4.20756 74.7165 4.6142 81.1661 6.42026L82.6038 2.04249C78.6183 0.914158 70.2324 -1.01279 61.0675 0.64673H61.082ZM62.3778 17.8281C63.67 17.0023 65.117 16.4524 66.629 16.2125C69.9048 15.5751 73.8321 15.8242 77.7266 16.9086L79.1825 12.5308C74.1669 11.1314 69.1295 10.8054 64.9365 11.6186C63.0818 11.9336 61.3048 12.6052 59.7026 13.5969C58.4195 14.3754 57.4299 15.561 56.8891 16.9672C55.9828 19.4327 56.8017 23.2426 61.1694 26.5543C60.7435 25.9902 57.3186 21.2314 62.3632 17.8281H62.3778ZM62.9893 6.13085C60.6536 6.52973 58.4158 7.37668 56.3977 8.62563C54.6251 9.79425 53.4204 11.2266 52.8344 12.8935C51.1201 17.7731 55.2985 22.7847 57.6971 24.5211C56.7398 23.3672 52.6488 17.2529 59.0802 12.8678C60.5543 11.8641 62.4615 11.168 64.689 10.7358C69.0567 9.89317 74.2543 10.2229 79.43 11.6699L80.864 7.29214C77.8792 6.44615 74.8173 5.90491 71.7246 5.67659C68.8055 5.45097 65.8697 5.60363 62.9893 6.13085Z" fill="white"/>
<path d="M12.5184 64.4337C14.8078 64.4337 16.2273 65.3093 16.3365 65.4448L17.6978 61.2246C16.8024 60.763 15.2701 60.4223 13.3301 60.4223C8.54747 60.4223 4.8058 62.9867 4.2562 66.8442C3.92499 69.1741 5.48644 70.7274 7.49921 71.7972C9.08978 72.6397 9.60299 73.3028 9.47196 74.2187C9.34093 75.1345 8.43827 75.8818 6.88046 75.9038C4.39816 75.9331 1.85034 74.4092 1.85034 74.4092L0.5 78.6001C2.28347 79.787 5.55196 80.1754 8.17985 79.9299C11.3828 79.6332 15.5321 77.8821 15.2955 72.4566C15.2009 70.3464 13.2828 69.013 11.8451 68.218C10.4292 67.4853 9.7595 66.8442 9.86869 66.0786C9.99608 65.0858 11.0771 64.43 12.5184 64.4337ZM50.9468 60.404C48.4754 60.404 46.0077 61.4737 43.9148 63.9208H43.8384L44.6573 60.8253H39.7983C39.336 62.4701 38.7391 64.5326 37.9493 66.9028L33.8073 79.5159H39.2669L42.0003 71.222C43.3434 67.0933 45.7529 64.8367 47.5364 64.8367C48.9049 64.8367 49.2325 65.7525 49.0469 67.0567C48.9382 67.768 48.7751 68.4698 48.5591 69.1558L45.1523 79.5159H50.6119L54.2007 68.6576C54.5209 67.6192 54.7725 66.5606 54.9542 65.4888C55.4237 62.2943 53.9823 60.4223 50.9468 60.4223V60.404ZM74.0009 52.3774L71.2056 60.8253C70.41 60.5358 69.5692 60.393 68.7233 60.404C61.6986 60.404 56.1844 66.368 55.2563 72.8595C54.612 77.4095 56.8723 79.9336 60.0243 79.9336C62.2081 79.9336 64.6031 78.9774 66.5758 76.4936H66.6523L65.9607 79.5123H70.9872C71.4501 77.05 72.085 74.6237 72.8872 72.2514L79.4678 52.3958L74.0009 52.3774ZM68.1227 70.2658C66.8961 73.8193 64.7196 75.5009 63.1618 75.5009C61.604 75.5009 60.7595 74.2406 61.0835 71.984C61.5894 68.3938 64.4502 64.5693 67.7151 64.5693C68.4593 64.5408 69.1906 64.7711 69.7861 65.2213L68.1227 70.2658ZM106.642 60.404C100.036 60.404 94.802 65.7159 93.8775 72.2148C93.2224 76.8417 95.934 79.9372 100.644 79.9372C107.097 79.9372 112.44 74.9294 113.408 68.0861C114.013 63.8622 111.614 60.4223 106.642 60.4223V60.404ZM107.734 68.1264C107.275 71.3356 104.982 75.7316 101.983 75.7316C100.087 75.7316 99.228 74.2663 99.5373 72.1012C99.9013 69.1961 102.162 64.5693 105.314 64.5693C107.53 64.5876 107.992 66.4229 107.749 68.1447L107.734 68.1264ZM33.6544 71.8851C34.526 70.2036 35.1116 68.3871 35.3869 66.5109C35.689 64.071 34.3387 60.4186 29.658 60.4186C22.939 60.4186 18.0108 66.346 17.1882 72.0389C16.5003 76.893 18.8043 79.9116 24.1219 79.9116C26.3617 79.9288 28.5845 79.5198 30.6734 78.7063L32.1293 74.1784C30.2467 75.1603 28.1568 75.6717 26.0364 75.6694C21.9817 75.6694 22.2111 72.7753 22.4658 71.8851H33.6544ZM28.4059 64.43C30.7098 64.43 30.8445 66.5145 30.2622 68.0238H23.5978C24.2821 66.3167 25.9964 64.4337 28.4059 64.4337V64.43ZM87.8174 60.4003C81.0948 60.4003 76.152 66.3277 75.344 72.0206C74.6561 76.8746 76.9637 79.8933 82.2777 79.8933C84.5174 79.9104 86.7403 79.5015 88.8292 78.688L90.2851 74.16C88.401 75.1417 86.3101 75.6531 84.1885 75.6511C80.1339 75.6511 80.3668 72.757 80.6216 71.8668H91.792C92.6635 70.1853 93.2492 68.3687 93.5245 66.4925C93.8448 64.0747 92.4981 60.4223 87.8174 60.4223V60.4003ZM88.4216 68.0055H81.7536C82.4415 66.2947 84.1558 64.4117 86.5653 64.4117C88.8693 64.4337 89.0003 66.5182 88.4216 68.0275V68.0055Z" fill="white"/>
</g>
<defs>
<clipPath id="clip0_135_342">
<rect width="113" height="80" fill="white" transform="translate(0.5)"/>
</clipPath>
</defs>
</svg>
