<svg width="96" height="96" viewBox="0 0 96 96" fill="none" xmlns="http://www.w3.org/2000/svg">
<circle cx="48" cy="48" r="48" fill="#00BB59"/>
<path d="M44.0302 44.2579C43.8368 43.9128 43.3946 43.7897 43.0456 43.9802L42.0527 44.5216V43.4737C42.0527 43.0798 41.7284 42.7603 41.3286 42.7603C40.9289 42.7603 40.6046 43.0798 40.6046 43.4737V44.5216L39.6117 43.979C39.2615 43.7885 38.8216 43.9116 38.6271 44.2567C38.4337 44.6017 38.5599 45.0351 38.9089 45.2268L39.8346 45.7322L38.9089 46.2375C38.5587 46.4281 38.4325 46.8626 38.6271 47.2076C38.7591 47.4423 39.0056 47.5748 39.2615 47.5748C39.3806 47.5748 39.5009 47.5457 39.6117 47.4853L40.6046 46.9428V47.9907C40.6046 48.3845 40.9289 48.704 41.3286 48.704C41.7284 48.704 42.0527 48.3845 42.0527 47.9907V46.9428L43.0456 47.4841C43.1564 47.5446 43.2767 47.5736 43.3958 47.5736C43.6505 47.5736 43.8981 47.4412 44.0302 47.2065C44.2236 46.8637 44.0974 46.4304 43.7484 46.2387L42.8227 45.7333L43.7484 45.228C44.0986 45.0374 44.2248 44.6029 44.0302 44.2579Z" fill="white"/>
<path d="M51.1728 44.2579C50.9794 43.9128 50.5384 43.7897 50.1881 43.9802L49.1952 44.5228V43.4748C49.1952 43.081 48.871 42.7615 48.4712 42.7615C48.0715 42.7615 47.7472 43.081 47.7472 43.4748V44.5228L46.7543 43.9814C46.4041 43.7909 45.9642 43.914 45.7696 44.2591C45.5763 44.6041 45.7013 45.0375 46.0515 45.2292L46.9772 45.7345L46.0515 46.2399C45.7013 46.4304 45.5751 46.865 45.7696 47.21C45.9017 47.4447 46.1482 47.5771 46.4041 47.5771C46.5232 47.5771 46.6434 47.5481 46.7543 47.4877L47.7472 46.9463V47.9942C47.7472 48.3881 48.0715 48.7076 48.4712 48.7076C48.871 48.7076 49.1952 48.3881 49.1952 47.9942V46.9463L50.1881 47.4888C50.299 47.5492 50.4193 47.5783 50.5384 47.5783C50.7931 47.5783 51.0407 47.4458 51.1728 47.2112C51.3673 46.865 51.24 46.4316 50.8909 46.2399L49.9653 45.7345L50.8909 45.2292C51.2412 45.0386 51.3673 44.6041 51.1728 44.2591V44.2579Z" fill="white"/>
<path d="M58.3139 44.2579C58.1205 43.9128 57.6795 43.7885 57.3292 43.9802L56.3364 44.5216V43.4737C56.3364 43.0798 56.0121 42.7603 55.6123 42.7603C55.2126 42.7603 54.8883 43.0798 54.8883 43.4737V44.5216L53.8954 43.9802C53.5452 43.7897 53.1053 43.9128 52.9108 44.2579C52.7174 44.6029 52.8424 45.0363 53.1926 45.228L54.1183 45.7333L53.1926 46.2387C52.8424 46.4292 52.7162 46.8638 52.9108 47.2088C53.0428 47.4435 53.2893 47.5759 53.5452 47.5759C53.6643 47.5759 53.7846 47.5469 53.8954 47.4865L54.8883 46.9451V47.993C54.8883 48.3869 55.2126 48.7064 55.6123 48.7064C56.0121 48.7064 56.3364 48.3869 56.3364 47.993V46.9451L57.3292 47.4865C57.4401 47.548 57.5604 47.5759 57.6795 47.5759C57.9342 47.5759 58.1818 47.4435 58.3139 47.2088C58.5085 46.8649 58.3823 46.4304 58.0321 46.2387L57.1064 45.7333L58.0321 45.228C58.3823 45.0374 58.5085 44.6029 58.3139 44.2579Z" fill="white"/>
<path d="M60.3044 21H36.6956C33.5553 21 31 23.5176 31 26.6114V69.3897C31 72.4824 33.5553 75 36.6956 75H60.3044C63.4447 75 65.9988 72.4836 66 69.3897V26.6114C66 23.5176 63.4458 21 60.3056 21H60.3044ZM41.2355 22.9518H55.7633V24.6864C55.7633 25.531 55.1218 26.2188 54.3353 26.2188H42.6647C41.877 26.2188 41.2355 25.531 41.2355 24.6864V22.9518ZM64.0178 69.3897C64.0178 71.4077 62.3527 73.0494 60.3033 73.0494H36.6956C34.6473 73.0494 32.9811 71.4089 32.9811 69.3897V26.6114C32.9811 24.5934 34.6473 22.9518 36.6956 22.9518H39.2544V24.6864C39.2544 26.608 40.785 28.1706 42.6647 28.1706H54.3353C56.215 28.1706 57.7444 26.608 57.7444 24.6864V22.9518H60.3044C62.3527 22.9518 64.0189 24.5934 64.0189 26.6114V69.3897H64.0178Z" fill="white"/>
<path d="M56.6428 37.2651H40.358C37.0196 37.2651 34.3027 39.6491 34.3027 42.5779V48.9132C34.3027 50.1458 34.9961 51.0334 35.7909 51.8002C35.7909 52.0593 35.726 52.7808 35.2426 54.5479C35.0338 55.31 35.3593 56.0907 36.0515 56.4904C36.3321 56.6519 36.6399 56.732 36.9442 56.732C37.3887 56.732 37.8274 56.5624 38.1682 56.2336C41.0443 53.4604 41.8803 53.3268 41.8945 53.3222L56.6404 53.3559H56.6428C59.9823 53.3559 62.698 50.9719 62.698 48.043V42.5803C62.698 39.6514 59.9823 37.2674 56.6428 37.2674V37.2651ZM60.7169 48.043C60.7169 49.8961 58.8892 51.4041 56.6428 51.4041L41.8992 51.3704H41.8945C41.2317 51.3704 40.1174 51.7189 37.3545 54.2958C37.9842 51.7805 37.8286 51.0137 37.3286 50.5501C36.6836 49.9495 36.2838 49.4674 36.2838 48.9132V42.5779C36.2838 40.7249 38.1116 39.2169 40.358 39.2169H56.6416C58.888 39.218 60.7158 40.726 60.7158 42.5803V48.043H60.7169Z" fill="white"/>
</svg>
